<?xml version="1.0" encoding="UTF-8" standalone="no"?>
<!DOCTYPE svg PUBLIC "-//W3C//DTD SVG 1.1//EN" "http://www.w3.org/Graphics/SVG/1.1/DTD/svg11.dtd">
<svg width="100%" height="100%" viewBox="0 0 104 116" version="1.1" xmlns="http://www.w3.org/2000/svg" xmlns:xlink="http://www.w3.org/1999/xlink" xml:space="preserve" xmlns:serif="http://www.serif.com/" style="fill-rule:evenodd;clip-rule:evenodd;stroke-linejoin:round;stroke-miterlimit:2;">
    <g transform="matrix(1,0,0,1,-46,-44)">
        <g>
            <g>
                <path d="M46.637,109.265C46.637,109.265 57.945,77.765 62.477,65.141C63.627,61.937 66.328,59.538 69.646,58.775C85.636,55.094 132.15,44.389 132.15,44.389L110,100L46.637,109.265ZM50.746,105.217L108.299,96.877L126.852,48.311C126.852,48.311 85.664,58.064 70.694,61.608C67.358,62.398 64.66,64.841 63.543,68.081C59.645,79.394 50.746,105.217 50.746,105.217Z" style="fill:rgb(241,245,249);"/>
                <path d="M132.15,44.389L150,100L132.15,150L110,100L132.15,44.389Z" style="fill:rgb(226,232,240);"/>
                <path d="M46.637,109.265L110,100L132.15,150L64.322,160L46.637,109.265Z" style="fill:rgb(248,250,252);"/>
                <path d="M50.746,105.217C50.746,105.217 59.645,79.394 63.543,68.081C64.66,64.841 67.358,62.398 70.694,61.608C85.664,58.064 126.852,48.311 126.852,48.311L108.299,96.877L50.746,105.217Z" style="fill:rgb(226,232,240);"/>
                <path d="M80,101L65.412,64.63C65.412,64.63 66.46,63.831 67.246,63.232C67.807,62.804 68.45,62.497 69.135,62.331C77,60.42 126.852,48.311 126.852,48.311L108.299,96.877L80,101Z" style="fill:rgb(203,213,225);"/>
            </g>
        </g>
    </g>
</svg>
